<?xml version="1.0" encoding="UTF-8" standalone="no"?>
<!DOCTYPE svg PUBLIC "-//W3C//DTD SVG 1.1//EN"
 "http://www.w3.org/Graphics/SVG/1.1/DTD/svg11.dtd">
<!-- Generated by graphviz version 9.0.0 (20230911.1827)
 -->
<!-- Title: g Pages: 1 -->
<svg width="883pt" height="998pt"
 viewBox="0.00 0.00 883.00 997.75" xmlns="http://www.w3.org/2000/svg" xmlns:xlink="http://www.w3.org/1999/xlink">
<g id="graph0" class="graph" transform="scale(1 1) rotate(0) translate(4 993.75)">
<title>g</title>
<polygon fill="white" stroke="none" points="-4,4 -4,-993.75 879,-993.75 879,4 -4,4"/>
<g id="clust1" class="cluster">
<title>cluster_1322970774</title>
<polygon fill="#ececec" stroke="black" points="8,-8 8,-981.75 867,-981.75 867,-8 8,-8"/>
<text text-anchor="middle" x="38.88" y="-964.45" font-family="Times New Roman,serif" font-size="14.00">example</text>
</g>
<g id="clust2" class="cluster">
<title>cluster_915177120</title>
<polygon fill="#d8d8d8" stroke="black" points="16,-16 16,-950 859,-950 859,-16 16,-16"/>
<text text-anchor="middle" x="63" y="-932.7" font-family="Times New Roman,serif" font-size="14.00">myapplication</text>
</g>
<!-- AVLTree1317789190 -->
<g id="node1" class="node">
<title>AVLTree1317789190</title>
<polygon fill="#ffffff" stroke="none" points="835.75,-121 584.25,-121 584.25,-24 835.75,-24 835.75,-121"/>
<text text-anchor="start" x="589.25" y="-102.7" font-family="Times New Roman,serif" font-size="14.00">(C)AVLTree&lt;T extends Comparable&lt;T&gt;&gt;</text>
<text text-anchor="start" x="589.25" y="-78.95" font-family="Times New Roman,serif" font-size="14.00">+ insert(element: T): AVLTree&lt;T&gt;</text>
<text text-anchor="start" x="589.25" y="-55.2" font-family="Times New Roman,serif" font-size="14.00">+ leftRotate(): AVLTree&lt;T&gt;</text>
<text text-anchor="start" x="589.25" y="-31.45" font-family="Times New Roman,serif" font-size="14.00">+ rightRotate(): AVLTree&lt;T&gt;</text>
<polygon fill="black" stroke="black" points="584.25,-96.25 584.25,-96.25 835.75,-96.25 835.75,-96.25 584.25,-96.25"/>
<polygon fill="none" stroke="black" points="584.25,-24 584.25,-121 835.75,-121 835.75,-24 584.25,-24"/>
</g>
<!-- BinarySearchTree1317789190 -->
<g id="node2" class="node">
<title>BinarySearchTree1317789190</title>
<polygon fill="#ffffff" stroke="none" points="851,-416.12 553,-416.12 553,-295.38 851,-295.38 851,-416.12"/>
<text text-anchor="start" x="558" y="-397.82" font-family="Times New Roman,serif" font-size="14.00">(C)BinarySearchTree&lt;T extends Comparable&lt;T&gt;&gt;</text>
<text text-anchor="start" x="558" y="-374.07" font-family="Times New Roman,serif" font-size="14.00">+ find(element: T): Tree&lt;T&gt;</text>
<text text-anchor="start" x="558" y="-350.32" font-family="Times New Roman,serif" font-size="14.00">+ insert(element: T): BinarySearchTree&lt;T&gt;</text>
<text text-anchor="start" x="558" y="-326.57" font-family="Times New Roman,serif" font-size="14.00">+ max(): T</text>
<text text-anchor="start" x="558" y="-302.82" font-family="Times New Roman,serif" font-size="14.00">+ min(): T</text>
<polygon fill="black" stroke="black" points="553,-391.38 553,-391.38 851,-391.38 851,-391.38 553,-391.38"/>
<polygon fill="none" stroke="black" points="553,-295.38 553,-416.12 851,-416.12 851,-295.38 553,-295.38"/>
</g>
<!-- BinarySearchTree1317789190&#45;&gt;AVLTree1317789190 -->
<g id="edge1" class="edge">
<title>BinarySearchTree1317789190&#45;&gt;AVLTree1317789190</title>
<path fill="none" stroke="black" d="M704.01,-284.15C705.46,-233.02 707.39,-165.31 708.66,-120.62"/>
<polygon fill="none" stroke="black" points="700.52,-283.84 703.73,-293.93 707.51,-284.04 700.52,-283.84"/>
</g>
<!-- EmptyAVL1251625729 -->
<g id="node3" class="node">
<title>EmptyAVL1251625729</title>
<polygon fill="#ffffff" stroke="none" points="566.38,-97.25 303.62,-97.25 303.62,-47.75 566.38,-47.75 566.38,-97.25"/>
<text text-anchor="start" x="308.62" y="-78.95" font-family="Times New Roman,serif" font-size="14.00">(C)EmptyAVL&lt;T extends Comparable&lt;T&gt;&gt;</text>
<text text-anchor="start" x="308.62" y="-55.2" font-family="Times New Roman,serif" font-size="14.00">+ insert(element: T): Tree&lt;T&gt;</text>
<polygon fill="black" stroke="black" points="303.62,-72.5 303.62,-72.5 566.38,-72.5 566.38,-72.5 303.62,-72.5"/>
<polygon fill="none" stroke="black" points="303.62,-47.75 303.62,-97.25 566.38,-97.25 566.38,-47.75 303.62,-47.75"/>
</g>
<!-- EmptyBST1318597157 -->
<g id="node4" class="node">
<title>EmptyBST1318597157</title>
<polygon fill="#ffffff" stroke="none" points="285.62,-97.25 24.38,-97.25 24.38,-47.75 285.62,-47.75 285.62,-97.25"/>
<text text-anchor="start" x="29.38" y="-78.95" font-family="Times New Roman,serif" font-size="14.00">(C)EmptyBST&lt;T extends Comparable&lt;T&gt;&gt;</text>
<text text-anchor="start" x="29.38" y="-55.2" font-family="Times New Roman,serif" font-size="14.00">+ insert(element: T): Tree&lt;T&gt;</text>
<polygon fill="black" stroke="black" points="24.38,-72.5 24.38,-72.5 285.62,-72.5 285.62,-72.5 24.38,-72.5"/>
<polygon fill="none" stroke="black" points="24.38,-47.75 24.38,-97.25 285.62,-97.25 285.62,-47.75 24.38,-47.75"/>
</g>
<!-- EmptyTree1317789190 -->
<g id="node5" class="node">
<title>EmptyTree1317789190</title>
<polygon fill="#ffffff" stroke="none" points="284.25,-428 23.75,-428 23.75,-283.5 284.25,-283.5 284.25,-428"/>
<text text-anchor="start" x="28.75" y="-409.7" font-family="Times New Roman,serif" font-size="14.00">(C)EmptyTree&lt;T extends Comparable&lt;T&gt;&gt;</text>
<text text-anchor="start" x="28.75" y="-385.95" font-family="Times New Roman,serif" font-size="14.00">+ display(tabs: int): String</text>
<text text-anchor="start" x="28.75" y="-362.2" font-family="Times New Roman,serif" font-size="14.00">+ find(element: T): Tree&lt;T&gt;</text>
<text text-anchor="start" x="28.75" y="-338.45" font-family="Times New Roman,serif" font-size="14.00">+ insert(element: T): Tree&lt;T&gt;</text>
<text text-anchor="start" x="28.75" y="-314.7" font-family="Times New Roman,serif" font-size="14.00">+ max(): T</text>
<text text-anchor="start" x="28.75" y="-290.95" font-family="Times New Roman,serif" font-size="14.00">+ min(): T</text>
<polygon fill="black" stroke="black" points="23.75,-403.25 23.75,-403.25 284.25,-403.25 284.25,-403.25 23.75,-403.25"/>
<polygon fill="none" stroke="black" points="23.75,-283.5 23.75,-428 284.25,-428 284.25,-283.5 23.75,-283.5"/>
</g>
<!-- EmptyTree1317789190&#45;&gt;EmptyAVL1251625729 -->
<g id="edge2" class="edge">
<title>EmptyTree1317789190&#45;&gt;EmptyAVL1251625729</title>
<path fill="none" stroke="black" d="M221.18,-274.98C257.09,-232.33 294,-188.5 294,-188.5 294,-188.5 364.87,-130.69 406.13,-97.05"/>
<polygon fill="none" stroke="black" points="218.52,-272.7 214.75,-282.61 223.87,-277.21 218.52,-272.7"/>
</g>
<!-- EmptyTree1317789190&#45;&gt;EmptyBST1318597157 -->
<g id="edge3" class="edge">
<title>EmptyTree1317789190&#45;&gt;EmptyBST1318597157</title>
<path fill="none" stroke="black" d="M154.29,-272.42C154.51,-212.49 154.78,-135.4 154.92,-97.18"/>
<polygon fill="none" stroke="black" points="150.79,-272.25 154.26,-282.27 157.79,-272.28 150.79,-272.25"/>
</g>
<!-- MainActivity1561133555 -->
<g id="node6" class="node">
<title>MainActivity1561133555</title>
<polygon fill="#ffffff" stroke="none" points="535.38,-523 302.62,-523 302.62,-188.5 535.38,-188.5 535.38,-523"/>
<text text-anchor="start" x="307.62" y="-504.7" font-family="Times New Roman,serif" font-size="14.00">(C)MainActivity</text>
<text text-anchor="start" x="307.62" y="-480.95" font-family="Times New Roman,serif" font-size="14.00"># &#160;&#160;editTextSearch: EditText [0..1]</text>
<text text-anchor="start" x="307.62" y="-457.2" font-family="Times New Roman,serif" font-size="14.00"># &#160;&#160;list: List&lt;Pet&gt; [0..*]</text>
<text text-anchor="start" x="307.62" y="-433.45" font-family="Times New Roman,serif" font-size="14.00"># &#160;&#160;query: String [0..1]</text>
<text text-anchor="start" x="307.62" y="-409.7" font-family="Times New Roman,serif" font-size="14.00"># &#160;&#160;recyclerView: RecyclerView [0..1]</text>
<text text-anchor="start" x="307.62" y="-385.95" font-family="Times New Roman,serif" font-size="14.00"># &#160;&#160;rootNode: AVLTree&lt;Pet&gt; [0..1]</text>
<text text-anchor="start" x="307.62" y="-362.2" font-family="Times New Roman,serif" font-size="14.00">+ hideSoftKeyboard()</text>
<text text-anchor="start" x="307.62" y="-338.45" font-family="Times New Roman,serif" font-size="14.00">+ loadLocalData(id: int)</text>
<text text-anchor="start" x="307.62" y="-314.7" font-family="Times New Roman,serif" font-size="14.00">+ loadShowData()</text>
<text text-anchor="start" x="307.62" y="-290.95" font-family="Times New Roman,serif" font-size="14.00">+ onBackPressed()</text>
<text text-anchor="start" x="307.62" y="-267.2" font-family="Times New Roman,serif" font-size="14.00"># onCreate(savedInstanceState: Bundle)</text>
<text text-anchor="start" x="307.62" y="-243.45" font-family="Times New Roman,serif" font-size="14.00">+ search(): List&lt;Pet&gt;</text>
<text text-anchor="start" x="307.62" y="-219.7" font-family="Times New Roman,serif" font-size="14.00">+ searchInvalid(): List&lt;Pet&gt;</text>
<text text-anchor="start" x="307.62" y="-195.95" font-family="Times New Roman,serif" font-size="14.00">+ updateDataFromFirebase()</text>
<polygon fill="black" stroke="black" points="302.62,-498.25 302.62,-498.25 535.38,-498.25 535.38,-498.25 302.62,-498.25"/>
<polygon fill="black" stroke="black" points="302.62,-379.5 302.62,-379.5 535.38,-379.5 535.38,-379.5 302.62,-379.5"/>
<polygon fill="none" stroke="black" points="302.62,-188.5 302.62,-523 535.38,-523 535.38,-188.5 302.62,-188.5"/>
</g>
<!-- MainActivity1561133555&#45;&gt;AVLTree1317789190 -->
<g id="edge4" class="edge">
<title>MainActivity1561133555&#45;&gt;AVLTree1317789190</title>
<path fill="none" stroke="black" d="M535.21,-200.19C540.72,-192.87 544,-188.5 544,-188.5 544,-188.5 588.96,-157.36 632.08,-127.48"/>
<polygon fill="black" stroke="black" points="634.05,-130.37 640.28,-121.8 630.07,-124.62 634.05,-130.37"/>
<text text-anchor="middle" x="639" y="-157.2" font-family="Times New Roman,serif" font-size="14.00">rootNode</text>
<text text-anchor="middle" x="639" y="-141.45" font-family="Times New Roman,serif" font-size="14.00">[0..1]</text>
</g>
<!-- Tree1317789190 -->
<g id="node7" class="node">
<title>Tree1317789190</title>
<polygon fill="#ffffff" stroke="none" points="558.25,-918.25 297.75,-918.25 297.75,-560 558.25,-560 558.25,-918.25"/>
<text text-anchor="start" x="302.75" y="-899.95" font-family="Times New Roman,serif" font-size="14.00">(C)Tree&lt;T extends Comparable&lt;T&gt;&gt;</text>
<text text-anchor="start" x="302.75" y="-876.2" font-family="Times New Roman,serif" font-size="14.00">+ &#160;&#160;leftNode: Tree&lt;T&gt; [0..1]</text>
<text text-anchor="start" x="302.75" y="-852.45" font-family="Times New Roman,serif" font-size="14.00">+ &#160;&#160;rightNode: Tree&lt;T&gt; [0..1]</text>
<text text-anchor="start" x="302.75" y="-828.7" font-family="Times New Roman,serif" font-size="14.00">+ &#160;&#160;value: T [0..1]</text>
<text text-anchor="start" x="302.75" y="-804.95" font-family="Times New Roman,serif" font-size="14.00">+ display(): String</text>
<text text-anchor="start" x="302.75" y="-781.2" font-family="Times New Roman,serif" font-size="14.00">+ display(tabs: int): String</text>
<text text-anchor="start" x="302.75" y="-757.45" font-family="Times New Roman,serif" font-size="14.00">+ find(element: T): Tree&lt;T&gt;</text>
<text text-anchor="start" x="302.75" y="-733.7" font-family="Times New Roman,serif" font-size="14.00">+ findEqual(element: T): List&lt;T&gt;</text>
<text text-anchor="start" x="302.75" y="-709.95" font-family="Times New Roman,serif" font-size="14.00">+ findGreater(element: T): List&lt;T&gt;</text>
<text text-anchor="start" x="302.75" y="-686.2" font-family="Times New Roman,serif" font-size="14.00">+ findSmaller(element: T): List&lt;T&gt;</text>
<text text-anchor="start" x="302.75" y="-662.45" font-family="Times New Roman,serif" font-size="14.00">+ inOrder(): List&lt;T&gt;</text>
<text text-anchor="start" x="302.75" y="-638.7" font-family="Times New Roman,serif" font-size="14.00">+ insert(element: T): Tree&lt;T&gt;</text>
<text text-anchor="start" x="302.75" y="-614.95" font-family="Times New Roman,serif" font-size="14.00">+ max(): T</text>
<text text-anchor="start" x="302.75" y="-591.2" font-family="Times New Roman,serif" font-size="14.00">+ min(): T</text>
<text text-anchor="start" x="302.75" y="-567.45" font-family="Times New Roman,serif" font-size="14.00">&#45; treeToListInOrder(tree: Tree&lt;T&gt;): List&lt;T&gt;</text>
<polygon fill="black" stroke="black" points="297.75,-893.5 297.75,-893.5 558.25,-893.5 558.25,-893.5 297.75,-893.5"/>
<polygon fill="black" stroke="black" points="297.75,-822.25 297.75,-822.25 558.25,-822.25 558.25,-822.25 297.75,-822.25"/>
<polygon fill="none" stroke="black" points="297.75,-560 297.75,-918.25 558.25,-918.25 558.25,-560 297.75,-560"/>
</g>
<!-- Tree1317789190&#45;&gt;BinarySearchTree1317789190 -->
<g id="edge5" class="edge">
<title>Tree1317789190&#45;&gt;BinarySearchTree1317789190</title>
<path fill="none" stroke="black" d="M562.35,-551.12C597.62,-502.03 633.12,-452.62 659.5,-415.91"/>
<polygon fill="none" stroke="black" points="559.65,-548.89 556.66,-559.05 565.34,-552.97 559.65,-548.89"/>
</g>
<!-- Tree1317789190&#45;&gt;EmptyTree1317789190 -->
<g id="edge6" class="edge">
<title>Tree1317789190&#45;&gt;EmptyTree1317789190</title>
<path fill="none" stroke="black" d="M293.69,-551.18C262.04,-507.13 230.21,-462.82 204.94,-427.65"/>
<polygon fill="none" stroke="black" points="290.66,-552.97 299.34,-559.05 296.35,-548.89 290.66,-552.97"/>
</g>
</g>
</svg>
