<?xml version="1.0" encoding="UTF-8" standalone="no"?>
<!DOCTYPE svg PUBLIC "-//W3C//DTD SVG 1.1//EN"
 "http://www.w3.org/Graphics/SVG/1.1/DTD/svg11.dtd">
<!-- Generated by graphviz version 9.0.0 (20230911.1827)
 -->
<!-- Title: g Pages: 1 -->
<svg width="883pt" height="974pt"
 viewBox="0.00 0.00 883.00 974.00" xmlns="http://www.w3.org/2000/svg" xmlns:xlink="http://www.w3.org/1999/xlink">
<g id="graph0" class="graph" transform="scale(1 1) rotate(0) translate(4 970)">
<title>g</title>
<polygon fill="white" stroke="none" points="-4,4 -4,-970 879,-970 879,4 -4,4"/>
<g id="clust1" class="cluster">
<title>cluster_1322970774</title>
<polygon fill="#ececec" stroke="black" points="8,-8 8,-958 867,-958 867,-8 8,-8"/>
<text text-anchor="middle" x="38.88" y="-940.7" font-family="Times New Roman,serif" font-size="14.00">example</text>
</g>
<g id="clust2" class="cluster">
<title>cluster_915177120</title>
<polygon fill="#d8d8d8" stroke="black" points="16,-16 16,-926.25 859,-926.25 859,-16 16,-16"/>
<text text-anchor="middle" x="63" y="-908.95" font-family="Times New Roman,serif" font-size="14.00">myapplication</text>
</g>
<!-- AVLTree1317789190 -->
<g id="node1" class="node">
<title>AVLTree1317789190</title>
<polygon fill="#ffffff" stroke="none" points="835.75,-121 584.25,-121 584.25,-24 835.75,-24 835.75,-121"/>
<text text-anchor="start" x="589.25" y="-102.7" font-family="Times New Roman,serif" font-size="14.00">(C)AVLTree&lt;T extends Comparable&lt;T&gt;&gt;</text>
<text text-anchor="start" x="589.25" y="-78.95" font-family="Times New Roman,serif" font-size="14.00">+ insert(element: T): AVLTree&lt;T&gt;</text>
<text text-anchor="start" x="589.25" y="-55.2" font-family="Times New Roman,serif" font-size="14.00">+ leftRotate(): AVLTree&lt;T&gt;</text>
<text text-anchor="start" x="589.25" y="-31.45" font-family="Times New Roman,serif" font-size="14.00">+ rightRotate(): AVLTree&lt;T&gt;</text>
<polygon fill="black" stroke="black" points="584.25,-96.25 584.25,-96.25 835.75,-96.25 835.75,-96.25 584.25,-96.25"/>
<polygon fill="none" stroke="black" points="584.25,-24 584.25,-121 835.75,-121 835.75,-24 584.25,-24"/>
</g>
<!-- BinarySearchTree1317789190 -->
<g id="node2" class="node">
<title>BinarySearchTree1317789190</title>
<polygon fill="#ffffff" stroke="none" points="851,-404.25 553,-404.25 553,-283.5 851,-283.5 851,-404.25"/>
<text text-anchor="start" x="558" y="-385.95" font-family="Times New Roman,serif" font-size="14.00">(C)BinarySearchTree&lt;T extends Comparable&lt;T&gt;&gt;</text>
<text text-anchor="start" x="558" y="-362.2" font-family="Times New Roman,serif" font-size="14.00">+ find(element: T): Tree&lt;T&gt;</text>
<text text-anchor="start" x="558" y="-338.45" font-family="Times New Roman,serif" font-size="14.00">+ insert(element: T): BinarySearchTree&lt;T&gt;</text>
<text text-anchor="start" x="558" y="-314.7" font-family="Times New Roman,serif" font-size="14.00">+ max(): T</text>
<text text-anchor="start" x="558" y="-290.95" font-family="Times New Roman,serif" font-size="14.00">+ min(): T</text>
<polygon fill="black" stroke="black" points="553,-379.5 553,-379.5 851,-379.5 851,-379.5 553,-379.5"/>
<polygon fill="none" stroke="black" points="553,-283.5 553,-404.25 851,-404.25 851,-283.5 553,-283.5"/>
</g>
<!-- BinarySearchTree1317789190&#45;&gt;AVLTree1317789190 -->
<g id="edge1" class="edge">
<title>BinarySearchTree1317789190&#45;&gt;AVLTree1317789190</title>
<path fill="none" stroke="black" d="M704.1,-272.25C705.52,-224.5 707.35,-162.74 708.59,-120.83"/>
<polygon fill="none" stroke="black" points="700.6,-272.15 703.8,-282.25 707.6,-272.35 700.6,-272.15"/>
</g>
<!-- EmptyAVL1251625729 -->
<g id="node3" class="node">
<title>EmptyAVL1251625729</title>
<polygon fill="#ffffff" stroke="none" points="566.38,-97.25 303.62,-97.25 303.62,-47.75 566.38,-47.75 566.38,-97.25"/>
<text text-anchor="start" x="308.62" y="-78.95" font-family="Times New Roman,serif" font-size="14.00">(C)EmptyAVL&lt;T extends Comparable&lt;T&gt;&gt;</text>
<text text-anchor="start" x="308.62" y="-55.2" font-family="Times New Roman,serif" font-size="14.00">+ insert(element: T): Tree&lt;T&gt;</text>
<polygon fill="black" stroke="black" points="303.62,-72.5 303.62,-72.5 566.38,-72.5 566.38,-72.5 303.62,-72.5"/>
<polygon fill="none" stroke="black" points="303.62,-47.75 303.62,-97.25 566.38,-97.25 566.38,-47.75 303.62,-47.75"/>
</g>
<!-- EmptyBST1318597157 -->
<g id="node4" class="node">
<title>EmptyBST1318597157</title>
<polygon fill="#ffffff" stroke="none" points="285.62,-97.25 24.38,-97.25 24.38,-47.75 285.62,-47.75 285.62,-97.25"/>
<text text-anchor="start" x="29.38" y="-78.95" font-family="Times New Roman,serif" font-size="14.00">(C)EmptyBST&lt;T extends Comparable&lt;T&gt;&gt;</text>
<text text-anchor="start" x="29.38" y="-55.2" font-family="Times New Roman,serif" font-size="14.00">+ insert(element: T): Tree&lt;T&gt;</text>
<polygon fill="black" stroke="black" points="24.38,-72.5 24.38,-72.5 285.62,-72.5 285.62,-72.5 24.38,-72.5"/>
<polygon fill="none" stroke="black" points="24.38,-47.75 24.38,-97.25 285.62,-97.25 285.62,-47.75 24.38,-47.75"/>
</g>
<!-- EmptyTree1317789190 -->
<g id="node5" class="node">
<title>EmptyTree1317789190</title>
<polygon fill="#ffffff" stroke="none" points="284.25,-416.12 23.75,-416.12 23.75,-271.62 284.25,-271.62 284.25,-416.12"/>
<text text-anchor="start" x="28.75" y="-397.82" font-family="Times New Roman,serif" font-size="14.00">(C)EmptyTree&lt;T extends Comparable&lt;T&gt;&gt;</text>
<text text-anchor="start" x="28.75" y="-374.07" font-family="Times New Roman,serif" font-size="14.00">+ display(tabs: int): String</text>
<text text-anchor="start" x="28.75" y="-350.32" font-family="Times New Roman,serif" font-size="14.00">+ find(element: T): Tree&lt;T&gt;</text>
<text text-anchor="start" x="28.75" y="-326.57" font-family="Times New Roman,serif" font-size="14.00">+ insert(element: T): Tree&lt;T&gt;</text>
<text text-anchor="start" x="28.75" y="-302.82" font-family="Times New Roman,serif" font-size="14.00">+ max(): T</text>
<text text-anchor="start" x="28.75" y="-279.07" font-family="Times New Roman,serif" font-size="14.00">+ min(): T</text>
<polygon fill="black" stroke="black" points="23.75,-391.38 23.75,-391.38 284.25,-391.38 284.25,-391.38 23.75,-391.38"/>
<polygon fill="none" stroke="black" points="23.75,-271.62 23.75,-416.12 284.25,-416.12 284.25,-271.62 23.75,-271.62"/>
</g>
<!-- EmptyTree1317789190&#45;&gt;EmptyAVL1251625729 -->
<g id="edge2" class="edge">
<title>EmptyTree1317789190&#45;&gt;EmptyAVL1251625729</title>
<path fill="none" stroke="black" d="M225.61,-263.91C260.07,-225.92 294,-188.5 294,-188.5 294,-188.5 364.87,-130.69 406.13,-97.05"/>
<polygon fill="none" stroke="black" points="223.41,-261.13 219.28,-270.89 228.59,-265.84 223.41,-261.13"/>
</g>
<!-- EmptyTree1317789190&#45;&gt;EmptyBST1318597157 -->
<g id="edge3" class="edge">
<title>EmptyTree1317789190&#45;&gt;EmptyBST1318597157</title>
<path fill="none" stroke="black" d="M154.31,-260.33C154.52,-204.01 154.78,-133.31 154.91,-97.17"/>
<polygon fill="none" stroke="black" points="150.81,-260.22 154.27,-270.23 157.81,-260.25 150.81,-260.22"/>
</g>
<!-- MainActivity1561133555 -->
<g id="node6" class="node">
<title>MainActivity1561133555</title>
<polygon fill="#ffffff" stroke="none" points="535.38,-499.25 302.62,-499.25 302.62,-188.5 535.38,-188.5 535.38,-499.25"/>
<text text-anchor="start" x="307.62" y="-480.95" font-family="Times New Roman,serif" font-size="14.00">(C)MainActivity</text>
<text text-anchor="start" x="307.62" y="-457.2" font-family="Times New Roman,serif" font-size="14.00"># &#160;&#160;editTextSearch: EditText [0..1]</text>
<text text-anchor="start" x="307.62" y="-433.45" font-family="Times New Roman,serif" font-size="14.00"># &#160;&#160;list: List&lt;Pet&gt; [0..*]</text>
<text text-anchor="start" x="307.62" y="-409.7" font-family="Times New Roman,serif" font-size="14.00"># &#160;&#160;query: String [0..1]</text>
<text text-anchor="start" x="307.62" y="-385.95" font-family="Times New Roman,serif" font-size="14.00"># &#160;&#160;recyclerView: RecyclerView [0..1]</text>
<text text-anchor="start" x="307.62" y="-362.2" font-family="Times New Roman,serif" font-size="14.00"># &#160;&#160;rootNode: AVLTree&lt;Pet&gt; [0..1]</text>
<text text-anchor="start" x="307.62" y="-338.45" font-family="Times New Roman,serif" font-size="14.00">+ hideSoftKeyboard()</text>
<text text-anchor="start" x="307.62" y="-314.7" font-family="Times New Roman,serif" font-size="14.00">+ loadLocalData(id: int)</text>
<text text-anchor="start" x="307.62" y="-290.95" font-family="Times New Roman,serif" font-size="14.00">+ loadShowData()</text>
<text text-anchor="start" x="307.62" y="-267.2" font-family="Times New Roman,serif" font-size="14.00">+ onBackPressed()</text>
<text text-anchor="start" x="307.62" y="-243.45" font-family="Times New Roman,serif" font-size="14.00"># onCreate(savedInstanceState: Bundle)</text>
<text text-anchor="start" x="307.62" y="-219.7" font-family="Times New Roman,serif" font-size="14.00">+ search(): List&lt;Pet&gt;</text>
<text text-anchor="start" x="307.62" y="-195.95" font-family="Times New Roman,serif" font-size="14.00">+ searchInvalid(): List&lt;Pet&gt;</text>
<polygon fill="black" stroke="black" points="302.62,-474.5 302.62,-474.5 535.38,-474.5 535.38,-474.5 302.62,-474.5"/>
<polygon fill="black" stroke="black" points="302.62,-355.75 302.62,-355.75 535.38,-355.75 535.38,-355.75 302.62,-355.75"/>
<polygon fill="none" stroke="black" points="302.62,-188.5 302.62,-499.25 535.38,-499.25 535.38,-188.5 302.62,-188.5"/>
</g>
<!-- MainActivity1561133555&#45;&gt;AVLTree1317789190 -->
<g id="edge4" class="edge">
<title>MainActivity1561133555&#45;&gt;AVLTree1317789190</title>
<path fill="none" stroke="black" d="M535.01,-199.6C540.64,-192.66 544,-188.5 544,-188.5 544,-188.5 588.96,-157.36 632.08,-127.48"/>
<polygon fill="black" stroke="black" points="634.05,-130.37 640.28,-121.8 630.07,-124.62 634.05,-130.37"/>
<text text-anchor="middle" x="639" y="-157.2" font-family="Times New Roman,serif" font-size="14.00">rootNode</text>
<text text-anchor="middle" x="639" y="-141.45" font-family="Times New Roman,serif" font-size="14.00">[0..1]</text>
</g>
<!-- Tree1317789190 -->
<g id="node7" class="node">
<title>Tree1317789190</title>
<polygon fill="#ffffff" stroke="none" points="558.25,-894.5 297.75,-894.5 297.75,-536.25 558.25,-536.25 558.25,-894.5"/>
<text text-anchor="start" x="302.75" y="-876.2" font-family="Times New Roman,serif" font-size="14.00">(C)Tree&lt;T extends Comparable&lt;T&gt;&gt;</text>
<text text-anchor="start" x="302.75" y="-852.45" font-family="Times New Roman,serif" font-size="14.00">+ &#160;&#160;leftNode: Tree&lt;T&gt; [0..1]</text>
<text text-anchor="start" x="302.75" y="-828.7" font-family="Times New Roman,serif" font-size="14.00">+ &#160;&#160;rightNode: Tree&lt;T&gt; [0..1]</text>
<text text-anchor="start" x="302.75" y="-804.95" font-family="Times New Roman,serif" font-size="14.00">+ &#160;&#160;value: T [0..1]</text>
<text text-anchor="start" x="302.75" y="-781.2" font-family="Times New Roman,serif" font-size="14.00">+ display(): String</text>
<text text-anchor="start" x="302.75" y="-757.45" font-family="Times New Roman,serif" font-size="14.00">+ display(tabs: int): String</text>
<text text-anchor="start" x="302.75" y="-733.7" font-family="Times New Roman,serif" font-size="14.00">+ find(element: T): Tree&lt;T&gt;</text>
<text text-anchor="start" x="302.75" y="-709.95" font-family="Times New Roman,serif" font-size="14.00">+ findEqual(element: T): List&lt;T&gt;</text>
<text text-anchor="start" x="302.75" y="-686.2" font-family="Times New Roman,serif" font-size="14.00">+ findGreater(element: T): List&lt;T&gt;</text>
<text text-anchor="start" x="302.75" y="-662.45" font-family="Times New Roman,serif" font-size="14.00">+ findSmaller(element: T): List&lt;T&gt;</text>
<text text-anchor="start" x="302.75" y="-638.7" font-family="Times New Roman,serif" font-size="14.00">+ inOrder(): List&lt;T&gt;</text>
<text text-anchor="start" x="302.75" y="-614.95" font-family="Times New Roman,serif" font-size="14.00">+ insert(element: T): Tree&lt;T&gt;</text>
<text text-anchor="start" x="302.75" y="-591.2" font-family="Times New Roman,serif" font-size="14.00">+ max(): T</text>
<text text-anchor="start" x="302.75" y="-567.45" font-family="Times New Roman,serif" font-size="14.00">+ min(): T</text>
<text text-anchor="start" x="302.75" y="-543.7" font-family="Times New Roman,serif" font-size="14.00">&#45; treeToListInOrder(tree: Tree&lt;T&gt;): List&lt;T&gt;</text>
<polygon fill="black" stroke="black" points="297.75,-869.75 297.75,-869.75 558.25,-869.75 558.25,-869.75 297.75,-869.75"/>
<polygon fill="black" stroke="black" points="297.75,-798.5 297.75,-798.5 558.25,-798.5 558.25,-798.5 297.75,-798.5"/>
<polygon fill="none" stroke="black" points="297.75,-536.25 297.75,-894.5 558.25,-894.5 558.25,-536.25 297.75,-536.25"/>
</g>
<!-- Tree1317789190&#45;&gt;BinarySearchTree1317789190 -->
<g id="edge5" class="edge">
<title>Tree1317789190&#45;&gt;BinarySearchTree1317789190</title>
<path fill="none" stroke="black" d="M564.94,-529.7C598.76,-484.09 632.59,-438.47 658.18,-403.97"/>
<polygon fill="none" stroke="black" points="562.23,-527.49 559.08,-537.61 567.85,-531.66 562.23,-527.49"/>
</g>
<!-- Tree1317789190&#45;&gt;EmptyTree1317789190 -->
<g id="edge6" class="edge">
<title>Tree1317789190&#45;&gt;EmptyTree1317789190</title>
<path fill="none" stroke="black" d="M291,-529.63C260.93,-489.07 230.86,-448.52 206.58,-415.78"/>
<polygon fill="none" stroke="black" points="288.15,-531.66 296.92,-537.61 293.77,-527.49 288.15,-531.66"/>
</g>
</g>
</svg>
