<?xml version="1.0" encoding="UTF-8" standalone="no"?>
<!DOCTYPE svg PUBLIC "-//W3C//DTD SVG 1.1//EN"
 "http://www.w3.org/Graphics/SVG/1.1/DTD/svg11.dtd">
<!-- Generated by graphviz version 9.0.0 (20230911.1827)
 -->
<!-- Title: g Pages: 1 -->
<svg width="1016pt" height="743pt"
 viewBox="0.00 0.00 1016.00 742.75" xmlns="http://www.w3.org/2000/svg" xmlns:xlink="http://www.w3.org/1999/xlink">
<g id="graph0" class="graph" transform="scale(1 1) rotate(0) translate(4 738.75)">
<title>g</title>
<polygon fill="white" stroke="none" points="-4,4 -4,-738.75 1012,-738.75 1012,4 -4,4"/>
<g id="clust1" class="cluster">
<title>cluster_1322970774</title>
<polygon fill="#ececec" stroke="black" points="8,-8 8,-726.75 1000,-726.75 1000,-8 8,-8"/>
<text text-anchor="middle" x="38.88" y="-709.45" font-family="Times New Roman,serif" font-size="14.00">example</text>
</g>
<g id="clust2" class="cluster">
<title>cluster_915177120</title>
<polygon fill="#d8d8d8" stroke="black" points="16,-16 16,-695 992,-695 992,-16 16,-16"/>
<text text-anchor="middle" x="63" y="-677.7" font-family="Times New Roman,serif" font-size="14.00">myapplication</text>
</g>
<!-- AbstractCheckingHandler449884450 -->
<g id="node1" class="node">
<title>AbstractCheckingHandler449884450</title>
<polygon fill="#ffffff" stroke="none" points="657.88,-255 350.12,-255 350.12,-110.5 657.88,-110.5 657.88,-255"/>
<text text-anchor="start" x="355.12" y="-236.7" font-family="Times New Roman,serif" font-size="14.00">(C)AbstractCheckingHandler</text>
<text text-anchor="start" x="355.12" y="-212.95" font-family="Times New Roman,serif" font-size="14.00">&#45; &#160;&#160;nextHandler: AbstractCheckingHandler [0..1]</text>
<text text-anchor="start" x="355.12" y="-189.2" font-family="Times New Roman,serif" font-size="14.00"># &#160;&#160;patternStr: String [0..1]</text>
<text text-anchor="start" x="355.12" y="-165.45" font-family="Times New Roman,serif" font-size="14.00"># &#160;&#160;resStr: String [0..1]</text>
<text text-anchor="start" x="355.12" y="-141.7" font-family="Times New Roman,serif" font-size="14.00"># doFilter(username: String, password: String): String</text>
<text text-anchor="start" x="355.12" y="-117.95" font-family="Times New Roman,serif" font-size="14.00">+ filter(username: String, password: String): String</text>
<polygon fill="black" stroke="black" points="350.12,-230.25 350.12,-230.25 657.88,-230.25 657.88,-230.25 350.12,-230.25"/>
<polygon fill="black" stroke="black" points="350.12,-159 350.12,-159 657.88,-159 657.88,-159 350.12,-159"/>
<polygon fill="none" stroke="black" points="350.12,-110.5 350.12,-255 657.88,-255 657.88,-110.5 350.12,-110.5"/>
</g>
<!-- EmailFormatCheckingHandler2041970869 -->
<g id="node3" class="node">
<title>EmailFormatCheckingHandler2041970869</title>
<polygon fill="#ffffff" stroke="none" points="331.88,-73.5 24.12,-73.5 24.12,-24 331.88,-24 331.88,-73.5"/>
<text text-anchor="start" x="29.12" y="-55.2" font-family="Times New Roman,serif" font-size="14.00">(C)EmailFormatCheckingHandler</text>
<text text-anchor="start" x="29.12" y="-31.45" font-family="Times New Roman,serif" font-size="14.00"># doFilter(username: String, password: String): String</text>
<polygon fill="black" stroke="black" points="24.12,-48.75 24.12,-48.75 331.88,-48.75 331.88,-48.75 24.12,-48.75"/>
<polygon fill="none" stroke="black" points="24.12,-24 24.12,-73.5 331.88,-73.5 331.88,-24 24.12,-24"/>
</g>
<!-- AbstractCheckingHandler449884450&#45;&gt;EmailFormatCheckingHandler2041970869 -->
<g id="edge1" class="edge">
<title>AbstractCheckingHandler449884450&#45;&gt;EmailFormatCheckingHandler2041970869</title>
<path fill="none" stroke="black" d="M340.06,-115.37C302.87,-100.31 265.74,-85.28 236.43,-73.41"/>
<polygon fill="none" stroke="black" points="338.56,-118.54 349.14,-119.05 341.19,-112.05 338.56,-118.54"/>
</g>
<!-- PasswordCheckingHandler2041970869 -->
<g id="node5" class="node">
<title>PasswordCheckingHandler2041970869</title>
<polygon fill="#ffffff" stroke="none" points="657.88,-73.5 350.12,-73.5 350.12,-24 657.88,-24 657.88,-73.5"/>
<text text-anchor="start" x="355.12" y="-55.2" font-family="Times New Roman,serif" font-size="14.00">(C)PasswordCheckingHandler</text>
<text text-anchor="start" x="355.12" y="-31.45" font-family="Times New Roman,serif" font-size="14.00"># doFilter(username: String, password: String): String</text>
<polygon fill="black" stroke="black" points="350.12,-48.75 350.12,-48.75 657.88,-48.75 657.88,-48.75 350.12,-48.75"/>
<polygon fill="none" stroke="black" points="350.12,-24 350.12,-73.5 657.88,-73.5 657.88,-24 350.12,-24"/>
</g>
<!-- AbstractCheckingHandler449884450&#45;&gt;PasswordCheckingHandler2041970869 -->
<g id="edge2" class="edge">
<title>AbstractCheckingHandler449884450&#45;&gt;PasswordCheckingHandler2041970869</title>
<path fill="none" stroke="black" d="M504,-99.42C504,-89.92 504,-80.91 504,-73.24"/>
<polygon fill="none" stroke="black" points="500.5,-99.21 504,-109.21 507.5,-99.21 500.5,-99.21"/>
</g>
<!-- PasswordLengthCheckingHandler2041970869 -->
<g id="node6" class="node">
<title>PasswordLengthCheckingHandler2041970869</title>
<polygon fill="#ffffff" stroke="none" points="983.88,-73.5 676.12,-73.5 676.12,-24 983.88,-24 983.88,-73.5"/>
<text text-anchor="start" x="681.12" y="-55.2" font-family="Times New Roman,serif" font-size="14.00">(C)PasswordLengthCheckingHandler</text>
<text text-anchor="start" x="681.12" y="-31.45" font-family="Times New Roman,serif" font-size="14.00"># doFilter(username: String, password: String): String</text>
<polygon fill="black" stroke="black" points="676.12,-48.75 676.12,-48.75 983.88,-48.75 983.88,-48.75 676.12,-48.75"/>
<polygon fill="none" stroke="black" points="676.12,-24 676.12,-73.5 983.88,-73.5 983.88,-24 676.12,-24"/>
</g>
<!-- AbstractCheckingHandler449884450&#45;&gt;PasswordLengthCheckingHandler2041970869 -->
<g id="edge3" class="edge">
<title>AbstractCheckingHandler449884450&#45;&gt;PasswordLengthCheckingHandler2041970869</title>
<path fill="none" stroke="black" d="M667.94,-115.37C705.13,-100.31 742.26,-85.28 771.57,-73.41"/>
<polygon fill="none" stroke="black" points="666.81,-112.05 658.86,-119.05 669.44,-118.54 666.81,-112.05"/>
</g>
<!-- CheckingHandlerDemo2041970869 -->
<g id="node2" class="node">
<title>CheckingHandlerDemo2041970869</title>
<polygon fill="#ffffff" stroke="none" points="649.25,-380 358.75,-380 358.75,-306.75 649.25,-306.75 649.25,-380"/>
<text text-anchor="start" x="363.75" y="-361.7" font-family="Times New Roman,serif" font-size="14.00">(C)CheckingHandlerDemo</text>
<text text-anchor="start" x="363.75" y="-337.95" font-family="Times New Roman,serif" font-size="14.00">+ exec(username: String, password: String): String</text>
<text text-anchor="start" x="363.75" y="-314.2" font-family="Times New Roman,serif" font-size="14.00">&#45; initializeChainFilter()</text>
<polygon fill="black" stroke="black" points="358.75,-355.25 358.75,-355.25 649.25,-355.25 649.25,-355.25 358.75,-355.25"/>
<polygon fill="none" stroke="black" points="358.75,-306.75 358.75,-380 649.25,-380 649.25,-306.75 358.75,-306.75"/>
</g>
<!-- CheckingHandlerDemo2041970869&#45;&gt;AbstractCheckingHandler449884450 -->
<g id="edge4" class="edge">
<title>CheckingHandlerDemo2041970869&#45;&gt;AbstractCheckingHandler449884450</title>
<path fill="none" stroke="black" d="M504,-306.78C504,-294.67 504,-280.58 504,-266.35"/>
<polygon fill="black" stroke="black" points="507.5,-266.46 504,-256.46 500.5,-266.46 507.5,-266.46"/>
<text text-anchor="middle" x="548.25" y="-275.45" font-family="Times New Roman,serif" font-size="14.00">exec() &#45;&gt; filter()</text>
</g>
<!-- LoginActivity1561133555 -->
<g id="node4" class="node">
<title>LoginActivity1561133555</title>
<polygon fill="#ffffff" stroke="none" points="835.38,-663.25 428.62,-663.25 428.62,-447.5 835.38,-447.5 835.38,-663.25"/>
<text text-anchor="start" x="433.62" y="-644.95" font-family="Times New Roman,serif" font-size="14.00">(C)LoginActivity</text>
<text text-anchor="start" x="433.62" y="-621.2" font-family="Times New Roman,serif" font-size="14.00">&#45; &#160;&#160;mAuth: FirebaseAuth [0..1]</text>
<text text-anchor="start" x="433.62" y="-597.45" font-family="Times New Roman,serif" font-size="14.00">&#45; &#160;&#160;userLocalData: List&lt;User&gt; [0..*]</text>
<text text-anchor="start" x="433.62" y="-573.7" font-family="Times New Roman,serif" font-size="14.00">&#45; CheckComplianceOfUserData(email: String, password: String): String</text>
<text text-anchor="start" x="433.62" y="-549.95" font-family="Times New Roman,serif" font-size="14.00">&#45; LoadLocalUserInfo(): List&lt;User&gt;</text>
<text text-anchor="start" x="433.62" y="-526.2" font-family="Times New Roman,serif" font-size="14.00">&#45; LocalCheckUserLoginInfo(email: String, password: String): boolean</text>
<text text-anchor="start" x="433.62" y="-502.45" font-family="Times New Roman,serif" font-size="14.00"># login(email: String, password: String)</text>
<text text-anchor="start" x="433.62" y="-478.7" font-family="Times New Roman,serif" font-size="14.00"># onCreate(savedInstanceState: Bundle)</text>
<text text-anchor="start" x="433.62" y="-454.95" font-family="Times New Roman,serif" font-size="14.00"># register(email: String, password: String)</text>
<polygon fill="black" stroke="black" points="428.62,-638.5 428.62,-638.5 835.38,-638.5 835.38,-638.5 428.62,-638.5"/>
<polygon fill="black" stroke="black" points="428.62,-591 428.62,-591 835.38,-591 835.38,-591 428.62,-591"/>
<polygon fill="none" stroke="black" points="428.62,-447.5 428.62,-663.25 835.38,-663.25 835.38,-447.5 428.62,-447.5"/>
</g>
<!-- LoginActivity1561133555&#45;&gt;CheckingHandlerDemo2041970869 -->
<g id="edge5" class="edge">
<title>LoginActivity1561133555&#45;&gt;CheckingHandlerDemo2041970869</title>
<path fill="none" stroke="black" d="M523.25,-447.66C512.09,-436.71 504.75,-429.5 504.75,-429.5 504.75,-429.5 504.59,-411.03 504.41,-391.29"/>
<polygon fill="black" stroke="black" points="507.92,-391.46 504.33,-381.5 500.92,-391.53 507.92,-391.46"/>
<text text-anchor="middle" x="620.62" y="-408.32" font-family="Times New Roman,serif" font-size="14.00">CheckComplianceOfUserData() &#45;&gt; exec()</text>
</g>
<!-- User1561133555 -->
<g id="node7" class="node">
<title>User1561133555</title>
<polygon fill="#ffffff" stroke="none" points="838.88,-380 681.12,-380 681.12,-306.75 838.88,-306.75 838.88,-380"/>
<text text-anchor="start" x="686.12" y="-361.7" font-family="Times New Roman,serif" font-size="14.00">(C)User</text>
<text text-anchor="start" x="686.12" y="-337.95" font-family="Times New Roman,serif" font-size="14.00"># &#160;&#160;Password: String [0..1]</text>
<text text-anchor="start" x="686.12" y="-314.2" font-family="Times New Roman,serif" font-size="14.00"># &#160;&#160;Username: String [0..1]</text>
<polygon fill="black" stroke="black" points="681.12,-355.25 681.12,-355.25 838.88,-355.25 838.88,-355.25 681.12,-355.25"/>
<polygon fill="none" stroke="black" points="681.12,-306.75 681.12,-380 838.88,-380 838.88,-306.75 681.12,-306.75"/>
</g>
<!-- LoginActivity1561133555&#45;&gt;User1561133555 -->
<g id="edge6" class="edge">
<title>LoginActivity1561133555&#45;&gt;User1561133555</title>
<path fill="none" stroke="black" d="M722.59,-447.66C731.88,-436.71 738,-429.5 738,-429.5 738,-429.5 742.82,-410.85 747.95,-391.02"/>
<polygon fill="black" stroke="black" points="751.31,-392.01 750.42,-381.45 744.53,-390.25 751.31,-392.01"/>
<text text-anchor="middle" x="785.12" y="-416.2" font-family="Times New Roman,serif" font-size="14.00">userLocalData</text>
<text text-anchor="middle" x="785.12" y="-400.45" font-family="Times New Roman,serif" font-size="14.00">[0..*]</text>
</g>
</g>
</svg>
