<?xml version="1.0" encoding="UTF-8" standalone="no"?>
<!DOCTYPE svg PUBLIC "-//W3C//DTD SVG 1.1//EN"
 "http://www.w3.org/Graphics/SVG/1.1/DTD/svg11.dtd">
<!-- Generated by graphviz version 9.0.0 (20230911.1827)
 -->
<!-- Title: g Pages: 1 -->
<svg width="3230pt" height="1147pt"
 viewBox="0.00 0.00 3230.00 1147.00" xmlns="http://www.w3.org/2000/svg" xmlns:xlink="http://www.w3.org/1999/xlink">
<g id="graph0" class="graph" transform="scale(1 1) rotate(0) translate(4 1143)">
<title>g</title>
<polygon fill="white" stroke="none" points="-4,4 -4,-1143 3226,-1143 3226,4 -4,4"/>
<g id="clust1" class="cluster">
<title>cluster_1322970774</title>
<polygon fill="#ececec" stroke="black" points="8,-8 8,-1131 3214,-1131 3214,-8 8,-8"/>
<text text-anchor="middle" x="38.88" y="-1113.7" font-family="Times New Roman,serif" font-size="14.00">example</text>
</g>
<g id="clust2" class="cluster">
<title>cluster_915177120</title>
<polygon fill="#d8d8d8" stroke="black" points="16,-16 16,-1099.25 3206,-1099.25 3206,-16 16,-16"/>
<text text-anchor="middle" x="63" y="-1081.95" font-family="Times New Roman,serif" font-size="14.00">myapplication</text>
</g>
<!-- MainActivity1561133555 -->
<g id="node1" class="node">
<title>MainActivity1561133555</title>
<polygon fill="#ffffff" stroke="none" points="3198.38,-641.75 2965.62,-641.75 2965.62,-307.25 3198.38,-307.25 3198.38,-641.75"/>
<text text-anchor="start" x="2970.62" y="-623.45" font-family="Times New Roman,serif" font-size="14.00">(C)MainActivity</text>
<text text-anchor="start" x="2970.62" y="-599.7" font-family="Times New Roman,serif" font-size="14.00"># &#160;&#160;editTextSearch: EditText [0..1]</text>
<text text-anchor="start" x="2970.62" y="-575.95" font-family="Times New Roman,serif" font-size="14.00"># &#160;&#160;list: List&lt;Pet&gt; [0..*]</text>
<text text-anchor="start" x="2970.62" y="-552.2" font-family="Times New Roman,serif" font-size="14.00"># &#160;&#160;query: String [0..1]</text>
<text text-anchor="start" x="2970.62" y="-528.45" font-family="Times New Roman,serif" font-size="14.00"># &#160;&#160;recyclerView: RecyclerView [0..1]</text>
<text text-anchor="start" x="2970.62" y="-504.7" font-family="Times New Roman,serif" font-size="14.00"># &#160;&#160;rootNode: AVLTree&lt;Pet&gt; [0..1]</text>
<text text-anchor="start" x="2970.62" y="-480.95" font-family="Times New Roman,serif" font-size="14.00">+ hideSoftKeyboard()</text>
<text text-anchor="start" x="2970.62" y="-457.2" font-family="Times New Roman,serif" font-size="14.00">+ loadLocalData(id: int)</text>
<text text-anchor="start" x="2970.62" y="-433.45" font-family="Times New Roman,serif" font-size="14.00">+ loadShowData()</text>
<text text-anchor="start" x="2970.62" y="-409.7" font-family="Times New Roman,serif" font-size="14.00">+ onBackPressed()</text>
<text text-anchor="start" x="2970.62" y="-385.95" font-family="Times New Roman,serif" font-size="14.00"># onCreate(savedInstanceState: Bundle)</text>
<text text-anchor="start" x="2970.62" y="-362.2" font-family="Times New Roman,serif" font-size="14.00">+ search(): List&lt;Pet&gt;</text>
<text text-anchor="start" x="2970.62" y="-338.45" font-family="Times New Roman,serif" font-size="14.00">+ searchInvalid(): List&lt;Pet&gt;</text>
<text text-anchor="start" x="2970.62" y="-314.7" font-family="Times New Roman,serif" font-size="14.00">+ updateDataFromFirebase()</text>
<polygon fill="black" stroke="black" points="2965.62,-617 2965.62,-617 3198.38,-617 3198.38,-617 2965.62,-617"/>
<polygon fill="black" stroke="black" points="2965.62,-498.25 2965.62,-498.25 3198.38,-498.25 3198.38,-498.25 2965.62,-498.25"/>
<polygon fill="none" stroke="black" points="2965.62,-307.25 2965.62,-641.75 3198.38,-641.75 3198.38,-307.25 2965.62,-307.25"/>
</g>
<!-- Pet1561133555 -->
<g id="node3" class="node">
<title>Pet1561133555</title>
<polygon fill="#ffffff" stroke="none" points="3197.75,-239.75 3006.25,-239.75 3006.25,-24 3197.75,-24 3197.75,-239.75"/>
<text text-anchor="start" x="3011.25" y="-221.45" font-family="Times New Roman,serif" font-size="14.00">(C)Pet</text>
<text text-anchor="start" x="3011.25" y="-197.7" font-family="Times New Roman,serif" font-size="14.00"># &#160;&#160;Money: int [1]</text>
<text text-anchor="start" x="3011.25" y="-173.95" font-family="Times New Roman,serif" font-size="14.00"># &#160;&#160;bodyType: String [0..1]</text>
<text text-anchor="start" x="3011.25" y="-150.2" font-family="Times New Roman,serif" font-size="14.00"># &#160;&#160;color: String [0..1]</text>
<text text-anchor="start" x="3011.25" y="-126.45" font-family="Times New Roman,serif" font-size="14.00"># &#160;&#160;comment: List&lt;String&gt; [0..*]</text>
<text text-anchor="start" x="3011.25" y="-102.7" font-family="Times New Roman,serif" font-size="14.00"># &#160;&#160;id: String [0..1]</text>
<text text-anchor="start" x="3011.25" y="-78.95" font-family="Times New Roman,serif" font-size="14.00"># &#160;&#160;name: String [0..1]</text>
<text text-anchor="start" x="3011.25" y="-55.2" font-family="Times New Roman,serif" font-size="14.00"># &#160;&#160;type: String [0..1]</text>
<text text-anchor="start" x="3011.25" y="-31.45" font-family="Times New Roman,serif" font-size="14.00">+ compareTo(pet: Pet): int</text>
<polygon fill="black" stroke="black" points="3006.25,-215 3006.25,-215 3197.75,-215 3197.75,-215 3006.25,-215"/>
<polygon fill="black" stroke="black" points="3006.25,-48.75 3006.25,-48.75 3197.75,-48.75 3197.75,-48.75 3006.25,-48.75"/>
<polygon fill="none" stroke="black" points="3006.25,-24 3006.25,-239.75 3197.75,-239.75 3197.75,-24 3006.25,-24"/>
</g>
<!-- MainActivity1561133555&#45;&gt;Pet1561133555 -->
<g id="edge1" class="edge">
<title>MainActivity1561133555&#45;&gt;Pet1561133555</title>
<path fill="none" stroke="black" d="M3105.46,-307.25C3107.03,-296.14 3108,-289.25 3108,-289.25 3108,-289.25 3108,-257.75 3108,-257.75 3108,-257.75 3107.88,-255.21 3107.67,-250.85"/>
<polygon fill="black" stroke="black" points="3111.18,-250.92 3107.2,-241.1 3104.18,-251.26 3111.18,-250.92"/>
<text text-anchor="middle" x="3123" y="-275.95" font-family="Times New Roman,serif" font-size="14.00">list</text>
<text text-anchor="middle" x="3123" y="-260.2" font-family="Times New Roman,serif" font-size="14.00">[0..*]</text>
</g>
<!-- MainActivity1561133555&#45;&gt;Pet1561133555 -->
<g id="edge2" class="edge">
<title>MainActivity1561133555&#45;&gt;Pet1561133555</title>
<path fill="none" stroke="black" d="M3053.13,-307.25C3051.2,-296.14 3050,-289.25 3050,-289.25 3050,-289.25 3050,-257.75 3050,-257.75 3050,-257.75 3051.17,-254.93 3053.16,-250.15"/>
<polygon fill="black" stroke="black" points="3056.37,-251.57 3056.98,-240.99 3049.9,-248.88 3056.37,-251.57"/>
<text text-anchor="middle" x="3077" y="-275.95" font-family="Times New Roman,serif" font-size="14.00">rootNode</text>
<text text-anchor="middle" x="3077" y="-260.2" font-family="Times New Roman,serif" font-size="14.00">[0..1]</text>
</g>
<!-- MyAdapter1561133555 -->
<g id="node2" class="node">
<title>MyAdapter1561133555</title>
<polygon fill="#ffffff" stroke="none" points="2947.25,-534.88 2536.75,-534.88 2536.75,-414.12 2947.25,-414.12 2947.25,-534.88"/>
<text text-anchor="start" x="2541.75" y="-516.58" font-family="Times New Roman,serif" font-size="14.00">(C)MyAdapter</text>
<text text-anchor="start" x="2541.75" y="-492.82" font-family="Times New Roman,serif" font-size="14.00"># &#160;&#160;activity: Activity [0..1]</text>
<text text-anchor="start" x="2541.75" y="-469.07" font-family="Times New Roman,serif" font-size="14.00">&#45; &#160;&#160;petList: List&lt;Pet&gt; [0..*]</text>
<text text-anchor="start" x="2541.75" y="-445.32" font-family="Times New Roman,serif" font-size="14.00">+ onBindViewHolder(holder: ViewHolder, position: int)</text>
<text text-anchor="start" x="2541.75" y="-421.57" font-family="Times New Roman,serif" font-size="14.00">+ onCreateViewHolder(parent: ViewGroup, viewType: int): ViewHolder</text>
<polygon fill="black" stroke="black" points="2536.75,-510.12 2536.75,-510.12 2947.25,-510.12 2947.25,-510.12 2536.75,-510.12"/>
<polygon fill="black" stroke="black" points="2536.75,-462.62 2536.75,-462.62 2947.25,-462.62 2947.25,-462.62 2536.75,-462.62"/>
<polygon fill="none" stroke="black" points="2536.75,-414.12 2536.75,-534.88 2947.25,-534.88 2947.25,-414.12 2536.75,-414.12"/>
</g>
<!-- MyAdapter1561133555&#45;&gt;Pet1561133555 -->
<g id="edge3" class="edge">
<title>MyAdapter1561133555&#45;&gt;Pet1561133555</title>
<path fill="none" stroke="black" d="M2806.68,-414.21C2882.22,-344.96 2997,-239.75 2997,-239.75 2997,-239.75 2997.5,-239.24 2998.42,-238.3"/>
<polygon fill="black" stroke="black" points="3000.75,-240.93 3005.26,-231.35 2995.75,-236.03 3000.75,-240.93"/>
<text text-anchor="middle" x="2994.12" y="-275.95" font-family="Times New Roman,serif" font-size="14.00">petList</text>
<text text-anchor="middle" x="2994.12" y="-260.2" font-family="Times New Roman,serif" font-size="14.00">[0..*]</text>
</g>
<!-- Search710130534 -->
<g id="node4" class="node">
<title>Search710130534</title>
<polygon fill="#ffffff" stroke="none" points="1844.12,-1067.5 1489.88,-1067.5 1489.88,-709.25 1844.12,-709.25 1844.12,-1067.5"/>
<text text-anchor="start" x="1494.88" y="-1049.2" font-family="Times New Roman,serif" font-size="14.00">(C)Search</text>
<text text-anchor="start" x="1494.88" y="-1025.45" font-family="Times New Roman,serif" font-size="14.00">&#45; &#160;&#160;attributeArrayList: ArrayList&lt;IAttribute&gt; [0..*]</text>
<text text-anchor="start" x="1494.88" y="-1001.7" font-family="Times New Roman,serif" font-size="14.00">&#45; &#160;&#160;bodyType: Attribute [0..1]</text>
<text text-anchor="start" x="1494.88" y="-977.95" font-family="Times New Roman,serif" font-size="14.00">&#45; &#160;&#160;color: Attribute [0..1]</text>
<text text-anchor="start" x="1494.88" y="-954.2" font-family="Times New Roman,serif" font-size="14.00">&#45; &#160;&#160;comment: Attribute [0..1]</text>
<text text-anchor="start" x="1494.88" y="-930.45" font-family="Times New Roman,serif" font-size="14.00">&#45; &#160;&#160;id: Attribute [0..1]</text>
<text text-anchor="start" x="1494.88" y="-906.7" font-family="Times New Roman,serif" font-size="14.00">&#45; &#160;&#160;money: Attribute [0..1]</text>
<text text-anchor="start" x="1494.88" y="-882.95" font-family="Times New Roman,serif" font-size="14.00">&#45; &#160;&#160;name: Attribute [0..1]</text>
<text text-anchor="start" x="1494.88" y="-859.2" font-family="Times New Roman,serif" font-size="14.00">&#45; &#160;&#160;type: Attribute [0..1]</text>
<text text-anchor="start" x="1494.88" y="-835.45" font-family="Times New Roman,serif" font-size="14.00">+ addAttributesToList(attribute: IAttribute)</text>
<text text-anchor="start" x="1494.88" y="-811.7" font-family="Times New Roman,serif" font-size="14.00">+ findEqual(attribute: Attribute, pets: Tree&lt;Pet&gt;): List&lt;Pet&gt;</text>
<text text-anchor="start" x="1494.88" y="-787.95" font-family="Times New Roman,serif" font-size="14.00">+ findGreater(attribute: Attribute, pets: Tree&lt;Pet&gt;): List&lt;Pet&gt;</text>
<text text-anchor="start" x="1494.88" y="-764.2" font-family="Times New Roman,serif" font-size="14.00">+ findSmaller(attribute: Attribute, pets: Tree&lt;Pet&gt;): List&lt;Pet&gt;</text>
<text text-anchor="start" x="1494.88" y="-740.45" font-family="Times New Roman,serif" font-size="14.00">+ searchPetsTree(allPets: Tree&lt;Pet&gt;): List&lt;Pet&gt;</text>
<text text-anchor="start" x="1494.88" y="-716.7" font-family="Times New Roman,serif" font-size="14.00">+ searchPetsTree_Test(allPets: Tree&lt;Pet&gt;): List&lt;Pet&gt;</text>
<polygon fill="black" stroke="black" points="1489.88,-1042.75 1489.88,-1042.75 1844.12,-1042.75 1844.12,-1042.75 1489.88,-1042.75"/>
<polygon fill="black" stroke="black" points="1489.88,-852.75 1489.88,-852.75 1844.12,-852.75 1844.12,-852.75 1489.88,-852.75"/>
<polygon fill="none" stroke="black" points="1489.88,-709.25 1489.88,-1067.5 1844.12,-1067.5 1844.12,-709.25 1489.88,-709.25"/>
</g>
<!-- basicAttribute1668631370 -->
<g id="node5" class="node">
<title>basicAttribute1668631370</title>
<polygon fill="#ffffff" stroke="none" points="1846.38,-558.62 1487.62,-558.62 1487.62,-390.38 1846.38,-390.38 1846.38,-558.62"/>
<text text-anchor="start" x="1492.62" y="-540.33" font-family="Times New Roman,serif" font-size="14.00">(C)basicAttribute</text>
<text text-anchor="start" x="1492.62" y="-516.58" font-family="Times New Roman,serif" font-size="14.00"># &#160;&#160;outputPetList: List&lt;Pet&gt; [0..*]</text>
<text text-anchor="start" x="1492.62" y="-492.82" font-family="Times New Roman,serif" font-size="14.00"># &#160;&#160;relation: int [1]</text>
<text text-anchor="start" x="1492.62" y="-469.07" font-family="Times New Roman,serif" font-size="14.00"># &#160;&#160;value: String [0..1]</text>
<text text-anchor="start" x="1492.62" y="-445.32" font-family="Times New Roman,serif" font-size="14.00"># findEqual(attribute: IAttribute, pets: Tree&lt;Pet&gt;): List&lt;Pet&gt;</text>
<text text-anchor="start" x="1492.62" y="-421.57" font-family="Times New Roman,serif" font-size="14.00">+ findGreater(attribute: IAttribute, pets: Tree&lt;Pet&gt;): List&lt;Pet&gt;</text>
<text text-anchor="start" x="1492.62" y="-397.82" font-family="Times New Roman,serif" font-size="14.00"># findSmaller(attribute: IAttribute, pets: Tree&lt;Pet&gt;): List&lt;Pet&gt;</text>
<polygon fill="black" stroke="black" points="1487.62,-533.88 1487.62,-533.88 1846.38,-533.88 1846.38,-533.88 1487.62,-533.88"/>
<polygon fill="black" stroke="black" points="1487.62,-462.62 1487.62,-462.62 1846.38,-462.62 1846.38,-462.62 1487.62,-462.62"/>
<polygon fill="none" stroke="black" points="1487.62,-390.38 1487.62,-558.62 1846.38,-558.62 1846.38,-390.38 1487.62,-390.38"/>
</g>
<!-- Search710130534&#45;&gt;basicAttribute1668631370 -->
<g id="edge4" class="edge">
<title>Search710130534&#45;&gt;basicAttribute1668631370</title>
<path fill="none" stroke="black" d="M1667,-709.42C1667,-656.87 1667,-601.86 1667,-558.39"/>
<text text-anchor="middle" x="1715.75" y="-677.95" font-family="Times New Roman,serif" font-size="14.00">attributeArrayList</text>
<text text-anchor="middle" x="1715.75" y="-662.2" font-family="Times New Roman,serif" font-size="14.00">[0..*]</text>
</g>
<!-- basicAttribute1668631370&#45;&gt;Pet1561133555 -->
<g id="edge5" class="edge">
<title>basicAttribute1668631370&#45;&gt;Pet1561133555</title>
<path fill="none" stroke="black" d="M1846.18,-438.9C2098.48,-390.19 2528,-307.25 2528,-307.25 2528,-307.25 2869,-257.75 2869,-257.75 2869,-257.75 2997,-239.75 2997,-239.75 2997,-239.75 2997.5,-239.24 2998.42,-238.3"/>
<polygon fill="black" stroke="black" points="3000.75,-240.93 3005.26,-231.35 2995.75,-236.03 3000.75,-240.93"/>
<text text-anchor="middle" x="2906.5" y="-275.95" font-family="Times New Roman,serif" font-size="14.00">outputPetList</text>
<text text-anchor="middle" x="2906.5" y="-260.2" font-family="Times New Roman,serif" font-size="14.00">[0..*]</text>
</g>
<!-- bodyTypeAttribute1668631370 -->
<g id="node6" class="node">
<title>bodyTypeAttribute1668631370</title>
<polygon fill="#ffffff" stroke="none" points="2562.12,-156.62 2153.88,-156.62 2153.88,-107.12 2562.12,-107.12 2562.12,-156.62"/>
<text text-anchor="start" x="2158.88" y="-138.32" font-family="Times New Roman,serif" font-size="14.00">(C)bodyTypeAttribute</text>
<text text-anchor="start" x="2158.88" y="-114.58" font-family="Times New Roman,serif" font-size="14.00">+ executeMethod(petsTree: Tree&lt;Pet&gt;, petsList: List&lt;Pet&gt;): List&lt;Pet&gt;</text>
<polygon fill="black" stroke="black" points="2153.88,-131.88 2153.88,-131.88 2562.12,-131.88 2562.12,-131.88 2153.88,-131.88"/>
<polygon fill="none" stroke="black" points="2153.88,-107.12 2153.88,-156.62 2562.12,-156.62 2562.12,-107.12 2153.88,-107.12"/>
</g>
<!-- basicAttribute1668631370&#45;&gt;bodyTypeAttribute1668631370 -->
<g id="edge6" class="edge">
<title>basicAttribute1668631370&#45;&gt;bodyTypeAttribute1668631370</title>
<path fill="none" stroke="black" d="M1846.99,-385.48C1982.5,-319.22 2145,-239.75 2145,-239.75 2145,-239.75 2247.98,-188.08 2310.73,-156.59"/>
<polygon fill="none" stroke="black" points="1845.68,-382.23 1838.23,-389.77 1848.75,-388.52 1845.68,-382.23"/>
</g>
<!-- colorAttribute1668631370 -->
<g id="node7" class="node">
<title>colorAttribute1668631370</title>
<polygon fill="#ffffff" stroke="none" points="2988.12,-156.62 2579.88,-156.62 2579.88,-107.12 2988.12,-107.12 2988.12,-156.62"/>
<text text-anchor="start" x="2584.88" y="-138.32" font-family="Times New Roman,serif" font-size="14.00">(C)colorAttribute</text>
<text text-anchor="start" x="2584.88" y="-114.58" font-family="Times New Roman,serif" font-size="14.00">+ executeMethod(petsTree: Tree&lt;Pet&gt;, petsList: List&lt;Pet&gt;): List&lt;Pet&gt;</text>
<polygon fill="black" stroke="black" points="2579.88,-131.88 2579.88,-131.88 2988.12,-131.88 2988.12,-131.88 2579.88,-131.88"/>
<polygon fill="none" stroke="black" points="2579.88,-107.12 2579.88,-156.62 2988.12,-156.62 2988.12,-107.12 2579.88,-107.12"/>
</g>
<!-- basicAttribute1668631370&#45;&gt;colorAttribute1668631370 -->
<g id="edge7" class="edge">
<title>basicAttribute1668631370&#45;&gt;colorAttribute1668631370</title>
<path fill="none" stroke="black" d="M1857.06,-424.36C2122.21,-355.79 2571,-239.75 2571,-239.75 2571,-239.75 2673.98,-188.08 2736.73,-156.59"/>
<polygon fill="none" stroke="black" points="1856.41,-420.91 1847.61,-426.8 1858.16,-427.69 1856.41,-420.91"/>
</g>
<!-- commentAttribute1668631370 -->
<g id="node8" class="node">
<title>commentAttribute1668631370</title>
<polygon fill="#ffffff" stroke="none" points="432.12,-156.62 23.88,-156.62 23.88,-107.12 432.12,-107.12 432.12,-156.62"/>
<text text-anchor="start" x="28.88" y="-138.32" font-family="Times New Roman,serif" font-size="14.00">(C)commentAttribute</text>
<text text-anchor="start" x="28.88" y="-114.58" font-family="Times New Roman,serif" font-size="14.00">+ executeMethod(petsTree: Tree&lt;Pet&gt;, petsList: List&lt;Pet&gt;): List&lt;Pet&gt;</text>
<polygon fill="black" stroke="black" points="23.88,-131.88 23.88,-131.88 432.12,-131.88 432.12,-131.88 23.88,-131.88"/>
<polygon fill="none" stroke="black" points="23.88,-107.12 23.88,-156.62 432.12,-156.62 432.12,-107.12 23.88,-107.12"/>
</g>
<!-- basicAttribute1668631370&#45;&gt;commentAttribute1668631370 -->
<g id="edge8" class="edge">
<title>basicAttribute1668631370&#45;&gt;commentAttribute1668631370</title>
<path fill="none" stroke="black" d="M1476.65,-437.21C1132.24,-371.54 441,-239.75 441,-239.75 441,-239.75 338.02,-188.08 275.27,-156.59"/>
<polygon fill="none" stroke="black" points="1475.78,-440.6 1486.26,-439.04 1477.09,-433.73 1475.78,-440.6"/>
</g>
<!-- idAttribute1668631370 -->
<g id="node9" class="node">
<title>idAttribute1668631370</title>
<polygon fill="#ffffff" stroke="none" points="858.12,-156.62 449.88,-156.62 449.88,-107.12 858.12,-107.12 858.12,-156.62"/>
<text text-anchor="start" x="454.88" y="-138.32" font-family="Times New Roman,serif" font-size="14.00">(C)idAttribute</text>
<text text-anchor="start" x="454.88" y="-114.58" font-family="Times New Roman,serif" font-size="14.00">+ executeMethod(petsTree: Tree&lt;Pet&gt;, petsList: List&lt;Pet&gt;): List&lt;Pet&gt;</text>
<polygon fill="black" stroke="black" points="449.88,-131.88 449.88,-131.88 858.12,-131.88 858.12,-131.88 449.88,-131.88"/>
<polygon fill="none" stroke="black" points="449.88,-107.12 449.88,-156.62 858.12,-156.62 858.12,-107.12 449.88,-107.12"/>
</g>
<!-- basicAttribute1668631370&#45;&gt;idAttribute1668631370 -->
<g id="edge9" class="edge">
<title>basicAttribute1668631370&#45;&gt;idAttribute1668631370</title>
<path fill="none" stroke="black" d="M1477.15,-418.03C1240.57,-348.9 867,-239.75 867,-239.75 867,-239.75 764.02,-188.08 701.27,-156.59"/>
<polygon fill="none" stroke="black" points="1475.93,-421.32 1486.51,-420.76 1477.89,-414.6 1475.93,-421.32"/>
</g>
<!-- moneyAttribute1668631370 -->
<g id="node10" class="node">
<title>moneyAttribute1668631370</title>
<polygon fill="#ffffff" stroke="none" points="1284.12,-156.62 875.88,-156.62 875.88,-107.12 1284.12,-107.12 1284.12,-156.62"/>
<text text-anchor="start" x="880.88" y="-138.32" font-family="Times New Roman,serif" font-size="14.00">(C)moneyAttribute</text>
<text text-anchor="start" x="880.88" y="-114.58" font-family="Times New Roman,serif" font-size="14.00">+ executeMethod(petsTree: Tree&lt;Pet&gt;, petsList: List&lt;Pet&gt;): List&lt;Pet&gt;</text>
<polygon fill="black" stroke="black" points="875.88,-131.88 875.88,-131.88 1284.12,-131.88 1284.12,-131.88 875.88,-131.88"/>
<polygon fill="none" stroke="black" points="875.88,-107.12 875.88,-156.62 1284.12,-156.62 1284.12,-107.12 875.88,-107.12"/>
</g>
<!-- basicAttribute1668631370&#45;&gt;moneyAttribute1668631370 -->
<g id="edge10" class="edge">
<title>basicAttribute1668631370&#45;&gt;moneyAttribute1668631370</title>
<path fill="none" stroke="black" d="M1513.97,-384.7C1382.11,-308.18 1200.73,-202.93 1120.72,-156.5"/>
<polygon fill="none" stroke="black" points="1512.06,-387.64 1522.47,-389.63 1515.58,-381.59 1512.06,-387.64"/>
</g>
<!-- nameAttribute1668631370 -->
<g id="node11" class="node">
<title>nameAttribute1668631370</title>
<polygon fill="#ffffff" stroke="none" points="1710.12,-156.62 1301.88,-156.62 1301.88,-107.12 1710.12,-107.12 1710.12,-156.62"/>
<text text-anchor="start" x="1306.88" y="-138.32" font-family="Times New Roman,serif" font-size="14.00">(C)nameAttribute</text>
<text text-anchor="start" x="1306.88" y="-114.58" font-family="Times New Roman,serif" font-size="14.00">+ executeMethod(petsTree: Tree&lt;Pet&gt;, petsList: List&lt;Pet&gt;): List&lt;Pet&gt;</text>
<polygon fill="black" stroke="black" points="1301.88,-131.88 1301.88,-131.88 1710.12,-131.88 1710.12,-131.88 1301.88,-131.88"/>
<polygon fill="none" stroke="black" points="1301.88,-107.12 1301.88,-156.62 1710.12,-156.62 1710.12,-107.12 1301.88,-107.12"/>
</g>
<!-- basicAttribute1668631370&#45;&gt;nameAttribute1668631370 -->
<g id="edge11" class="edge">
<title>basicAttribute1668631370&#45;&gt;nameAttribute1668631370</title>
<path fill="none" stroke="black" d="M1623.05,-380.51C1587.03,-304.3 1538.61,-201.86 1517.1,-156.35"/>
<polygon fill="none" stroke="black" points="1619.74,-381.7 1627.17,-389.24 1626.07,-378.7 1619.74,-381.7"/>
</g>
<!-- typeAttribute1668631370 -->
<g id="node12" class="node">
<title>typeAttribute1668631370</title>
<polygon fill="#ffffff" stroke="none" points="2136.12,-156.62 1727.88,-156.62 1727.88,-107.12 2136.12,-107.12 2136.12,-156.62"/>
<text text-anchor="start" x="1732.88" y="-138.32" font-family="Times New Roman,serif" font-size="14.00">(C)typeAttribute</text>
<text text-anchor="start" x="1732.88" y="-114.58" font-family="Times New Roman,serif" font-size="14.00">+ executeMethod(petsTree: Tree&lt;Pet&gt;, petsList: List&lt;Pet&gt;): List&lt;Pet&gt;</text>
<polygon fill="black" stroke="black" points="1727.88,-131.88 1727.88,-131.88 2136.12,-131.88 2136.12,-131.88 1727.88,-131.88"/>
<polygon fill="none" stroke="black" points="1727.88,-107.12 1727.88,-156.62 2136.12,-156.62 2136.12,-107.12 1727.88,-107.12"/>
</g>
<!-- basicAttribute1668631370&#45;&gt;typeAttribute1668631370 -->
<g id="edge12" class="edge">
<title>basicAttribute1668631370&#45;&gt;typeAttribute1668631370</title>
<path fill="none" stroke="black" d="M1738.26,-381.91C1797.66,-305.55 1878.11,-202.14 1913.73,-156.35"/>
<polygon fill="none" stroke="black" points="1735.79,-379.37 1732.42,-389.41 1741.32,-383.67 1735.79,-379.37"/>
</g>
</g>
</svg>
